<mxfile host="app.diagrams.net" modified="2022-02-26T09:50:45.726Z" agent="5.0 (Windows NT 10.0; Win64; x64) AppleWebKit/537.36 (KHTML, like Gecko) Chrome/98.0.4758.102 Safari/537.36" etag="oKJJIaNiUlp2s__PlH0u" version="16.6.4" type="github">
  <diagram id="bX-ItO7ee8GlbuZGgGAT" name="Page-1">
    <mxGraphModel dx="539" dy="350" grid="1" gridSize="10" guides="1" tooltips="1" connect="1" arrows="1" fold="1" page="1" pageScale="1" pageWidth="827" pageHeight="1169" math="0" shadow="0">
      <root>
        <mxCell id="0" />
        <mxCell id="1" parent="0" />
        <mxCell id="RFMa_diVaxnmyDunJ_oV-2" value="Heroku" style="rounded=0;whiteSpace=wrap;html=1;fillColor=#ffcc99;strokeColor=#36393d;" parent="1" vertex="1">
          <mxGeometry x="290" y="240" width="70" height="40" as="geometry" />
        </mxCell>
        <mxCell id="RFMa_diVaxnmyDunJ_oV-11" value="" style="endArrow=classic;html=1;rounded=0;entryX=1;entryY=0.4;entryDx=0;entryDy=0;dashed=1;entryPerimeter=0;" parent="1" target="0hB4XiBOAQGGQ3J1hZLm-4" edge="1">
          <mxGeometry width="50" height="50" relative="1" as="geometry">
            <mxPoint x="440" y="360" as="sourcePoint" />
            <mxPoint x="420" y="240" as="targetPoint" />
          </mxGeometry>
        </mxCell>
        <mxCell id="0hB4XiBOAQGGQ3J1hZLm-1" value="html page" style="edgeLabel;html=1;align=center;verticalAlign=middle;resizable=0;points=[];" parent="RFMa_diVaxnmyDunJ_oV-11" vertex="1" connectable="0">
          <mxGeometry x="-0.23" y="-2" relative="1" as="geometry">
            <mxPoint x="-9" y="2" as="offset" />
          </mxGeometry>
        </mxCell>
        <mxCell id="RFMa_diVaxnmyDunJ_oV-12" value="get request" style="endArrow=classic;html=1;rounded=0;exitX=1.024;exitY=0.199;exitDx=0;exitDy=0;entryX=-0.057;entryY=0.199;entryDx=0;entryDy=0;exitPerimeter=0;entryPerimeter=0;" parent="1" source="0hB4XiBOAQGGQ3J1hZLm-4" target="0hB4XiBOAQGGQ3J1hZLm-5" edge="1">
          <mxGeometry x="0.0287" width="50" height="50" relative="1" as="geometry">
            <mxPoint x="410" y="290" as="sourcePoint" />
            <mxPoint x="460" y="240" as="targetPoint" />
            <mxPoint as="offset" />
          </mxGeometry>
        </mxCell>
        <mxCell id="0hB4XiBOAQGGQ3J1hZLm-2" value="" style="rounded=0;whiteSpace=wrap;html=1;" parent="1" vertex="1">
          <mxGeometry x="190" y="280" width="10" height="200" as="geometry" />
        </mxCell>
        <mxCell id="0hB4XiBOAQGGQ3J1hZLm-4" value="" style="rounded=0;whiteSpace=wrap;html=1;" parent="1" vertex="1">
          <mxGeometry x="320" y="280" width="10" height="200" as="geometry" />
        </mxCell>
        <mxCell id="0hB4XiBOAQGGQ3J1hZLm-5" value="" style="rounded=0;whiteSpace=wrap;html=1;" parent="1" vertex="1">
          <mxGeometry x="447" y="280" width="10" height="200" as="geometry" />
        </mxCell>
        <mxCell id="0hB4XiBOAQGGQ3J1hZLm-6" value="Web page" style="rounded=0;whiteSpace=wrap;html=1;fillColor=#ffff88;strokeColor=#36393d;" parent="1" vertex="1">
          <mxGeometry x="417" y="240" width="70" height="40" as="geometry" />
        </mxCell>
        <mxCell id="0hB4XiBOAQGGQ3J1hZLm-11" value="post&amp;nbsp;request" style="endArrow=none;html=1;rounded=0;exitX=1.174;exitY=0.801;exitDx=0;exitDy=0;entryX=-0.174;entryY=0.796;entryDx=0;entryDy=0;startArrow=classic;startFill=1;endFill=0;entryPerimeter=0;exitPerimeter=0;" parent="1" source="0hB4XiBOAQGGQ3J1hZLm-2" target="0hB4XiBOAQGGQ3J1hZLm-4" edge="1">
          <mxGeometry width="50" height="50" relative="1" as="geometry">
            <mxPoint x="230" y="450" as="sourcePoint" />
            <mxPoint x="347" y="450" as="targetPoint" />
            <mxPoint as="offset" />
          </mxGeometry>
        </mxCell>
        <mxCell id="0hB4XiBOAQGGQ3J1hZLm-12" value="html parse" style="endArrow=classic;html=1;rounded=0;exitX=1;exitY=0.5;exitDx=0;exitDy=0;entryX=1.159;entryY=0.693;entryDx=0;entryDy=0;entryPerimeter=0;" parent="1" source="0hB4XiBOAQGGQ3J1hZLm-4" target="0hB4XiBOAQGGQ3J1hZLm-4" edge="1">
          <mxGeometry y="10" width="50" height="50" relative="1" as="geometry">
            <mxPoint x="330" y="390.00000000000006" as="sourcePoint" />
            <mxPoint x="360" y="420" as="targetPoint" />
            <mxPoint as="offset" />
            <Array as="points">
              <mxPoint x="370" y="380" />
              <mxPoint x="370" y="400" />
              <mxPoint x="370" y="419" />
            </Array>
          </mxGeometry>
        </mxCell>
        <mxCell id="0hB4XiBOAQGGQ3J1hZLm-16" value="Github" style="rounded=0;whiteSpace=wrap;html=1;fillColor=#ffff88;strokeColor=#36393d;" parent="1" vertex="1">
          <mxGeometry x="550" y="240" width="70" height="40" as="geometry" />
        </mxCell>
        <mxCell id="0hB4XiBOAQGGQ3J1hZLm-17" value="Salesforce" style="rounded=0;whiteSpace=wrap;html=1;fillColor=#cce5ff;strokeColor=#36393d;" parent="1" vertex="1">
          <mxGeometry x="160" y="240" width="70" height="40" as="geometry" />
        </mxCell>
        <mxCell id="0hB4XiBOAQGGQ3J1hZLm-18" value="Salesforce&lt;br&gt;Sites" style="rounded=0;whiteSpace=wrap;html=1;fillColor=#ffff88;strokeColor=#36393d;" parent="1" vertex="1">
          <mxGeometry x="30" y="240" width="70" height="40" as="geometry" />
        </mxCell>
        <mxCell id="0hB4XiBOAQGGQ3J1hZLm-21" value="" style="endArrow=classic;html=1;rounded=0;dashed=1;exitX=0;exitY=0.75;exitDx=0;exitDy=0;entryX=1;entryY=0.75;entryDx=0;entryDy=0;" parent="1" source="0hB4XiBOAQGGQ3J1hZLm-17" target="0hB4XiBOAQGGQ3J1hZLm-18" edge="1">
          <mxGeometry width="50" height="50" relative="1" as="geometry">
            <mxPoint x="290" y="300" as="sourcePoint" />
            <mxPoint x="340" y="250" as="targetPoint" />
          </mxGeometry>
        </mxCell>
        <mxCell id="0hB4XiBOAQGGQ3J1hZLm-22" value="" style="endArrow=classic;html=1;rounded=0;dashed=1;exitX=1;exitY=0.25;exitDx=0;exitDy=0;entryX=0;entryY=0.25;entryDx=0;entryDy=0;" parent="1" source="0hB4XiBOAQGGQ3J1hZLm-18" target="0hB4XiBOAQGGQ3J1hZLm-17" edge="1">
          <mxGeometry width="50" height="50" relative="1" as="geometry">
            <mxPoint x="290" y="300" as="sourcePoint" />
            <mxPoint x="340" y="250" as="targetPoint" />
          </mxGeometry>
        </mxCell>
        <mxCell id="0hB4XiBOAQGGQ3J1hZLm-23" value="" style="endArrow=classic;html=1;rounded=0;dashed=1;exitX=1;exitY=0.75;exitDx=0;exitDy=0;entryX=0;entryY=0.75;entryDx=0;entryDy=0;" parent="1" edge="1" target="0hB4XiBOAQGGQ3J1hZLm-16" source="0hB4XiBOAQGGQ3J1hZLm-6">
          <mxGeometry width="50" height="50" relative="1" as="geometry">
            <mxPoint x="469.15999999999997" y="240" as="sourcePoint" />
            <mxPoint x="469.15999999999997" y="200" as="targetPoint" />
          </mxGeometry>
        </mxCell>
        <mxCell id="0hB4XiBOAQGGQ3J1hZLm-24" value="" style="endArrow=classic;html=1;rounded=0;dashed=1;exitX=0;exitY=0.25;exitDx=0;exitDy=0;entryX=1;entryY=0.25;entryDx=0;entryDy=0;" parent="1" edge="1" target="0hB4XiBOAQGGQ3J1hZLm-6" source="0hB4XiBOAQGGQ3J1hZLm-16">
          <mxGeometry width="50" height="50" relative="1" as="geometry">
            <mxPoint x="434.15999999999997" y="200" as="sourcePoint" />
            <mxPoint x="434.15999999999997" y="240" as="targetPoint" />
          </mxGeometry>
        </mxCell>
      </root>
    </mxGraphModel>
  </diagram>
</mxfile>
